/vscmnt/brussel_pixiu_data/_data_brussel/112/vsc11236/PredSimResults/SUBJ04_Falisse2022/weighted/worker_02.mot
version=1
nRows=4
nColumns=124
inDegrees=yes
endheader
                time	         pelvis_tilt	         pelvis_list	     pelvis_rotation	           pelvis_tx	           pelvis_ty	           pelvis_tz	       hip_flexion_r	     hip_adduction_r	      hip_rotation_r	        knee_angle_r	       ankle_angle_r	    subtalar_angle_r	         mtp_angle_r	       hip_flexion_l	     hip_adduction_l	      hip_rotation_l	        knee_angle_l	       ankle_angle_l	    subtalar_angle_l	         mtp_angle_l	    lumbar_extension	      lumbar_bending	     lumbar_rotation	          arm_flex_r	           arm_add_r	           arm_rot_r	        elbow_flex_r	          arm_flex_l	           arm_add_l	           arm_rot_l	        elbow_flex_l	glut_med1_r/activation	glut_med2_r/activation	glut_med3_r/activation	glut_min1_r/activation	glut_min2_r/activation	glut_min3_r/activation	semimem_r/activation	semiten_r/activation	bifemlh_r/activation	bifemsh_r/activation	    sar_r/activation	add_long_r/activation	add_brev_r/activation	add_mag1_r/activation	add_mag2_r/activation	add_mag3_r/activation	    tfl_r/activation	   pect_r/activation	   grac_r/activation	glut_max1_r/activation	glut_max2_r/activation	glut_max3_r/activation	iliacus_r/activation	  psoas_r/activation	quad_fem_r/activation	    gem_r/activation	   peri_r/activation	rect_fem_r/activation	vas_med_r/activation	vas_int_r/activation	vas_lat_r/activation	med_gas_r/activation	lat_gas_r/activation	 soleus_r/activation	tib_post_r/activation	flex_dig_r/activation	flex_hal_r/activation	tib_ant_r/activation	per_brev_r/activation	per_long_r/activation	per_tert_r/activation	ext_dig_r/activation	ext_hal_r/activation	glut_med1_l/activation	glut_med2_l/activation	glut_med3_l/activation	glut_min1_l/activation	glut_min2_l/activation	glut_min3_l/activation	semimem_l/activation	semiten_l/activation	bifemlh_l/activation	bifemsh_l/activation	    sar_l/activation	add_long_l/activation	add_brev_l/activation	add_mag1_l/activation	add_mag2_l/activation	add_mag3_l/activation	    tfl_l/activation	   pect_l/activation	   grac_l/activation	glut_max1_l/activation	glut_max2_l/activation	glut_max3_l/activation	iliacus_l/activation	  psoas_l/activation	quad_fem_l/activation	    gem_l/activation	   peri_l/activation	rect_fem_l/activation	vas_med_l/activation	vas_int_l/activation	vas_lat_l/activation	med_gas_l/activation	lat_gas_l/activation	 soleus_l/activation	tib_post_l/activation	flex_dig_l/activation	flex_hal_l/activation	tib_ant_l/activation	per_brev_l/activation	per_long_l/activation	per_tert_l/activation	ext_dig_l/activation	ext_hal_l/activation	 ercspn_r/activation	 ercspn_l/activation	 intobl_r/activation	 intobl_l/activation	 extobl_r/activation	 extobl_l/activation	
          1.41187161	         -7.13702058	         -2.14683406	          1.85351022	          1.22832830	          0.87627944	         -0.00461748	         30.87218208	          4.69234176	          4.78570542	         -5.47706724	          7.05976792	         -6.94027248	          0.21315660	        -10.71836360	          1.85925508	         12.27975162	         -5.14098323	          7.81896178	         -6.91986660	         26.22515756	          0.46855354	          0.64398003	         -1.75397508	          0.24663118	        -13.44970728	         19.29954421	         25.31296061	          0.64163433	        -13.46608880	         19.34166607	         40.63075525	          0.01866583	          0.01000008	          0.01000007	          0.01176932	          0.01000034	          0.01000014	          0.06194811	          0.02700048	          0.01013579	          0.01000008	          0.01000043	          0.06698927	          0.17006427	          0.16250367	          0.12565612	          0.04951507	          0.01000029	          0.02816168	          0.06831052	          0.01000008	          0.01000007	          0.03282190	          0.01885150	          0.01885161	          0.14724250	          0.01000173	          0.01000034	          0.02876595	          0.08493561	          0.08491585	          0.06894672	          0.01000001	          0.01000003	          0.01000001	          0.01032221	          0.01000107	          0.01000039	          0.22910941	          0.02676463	          0.15899003	          0.11827704	          0.35936465	          0.09713641	          0.27544305	          0.21583653	          0.15038343	          0.18917923	          0.23580843	          0.20736923	          0.01000122	          0.01000025	          0.01000020	          0.04635774	          0.10203819	          0.01000016	          0.01000019	          0.01000043	          0.01000120	          0.01000038	          0.25017451	          0.01000097	          0.01000140	          0.03889414	          0.02330816	          0.01000160	          0.28976280	          0.36224390	          0.02856391	          0.03101969	          0.15487929	          0.03009732	          0.01000061	          0.01000067	          0.01000068	          0.30000931	          0.36188717	          0.33518118	          0.27735064	          0.25461806	          0.24141108	          0.01280306	          0.01235313	          0.01235357	          0.01000046	          0.01000027	          0.01000099	          0.03396185	          0.01000006	          0.05359670	          0.01235294	          0.05444272	          0.01000002	
          1.42599032	         -7.13591772	         -2.38330878	          2.06221339	          1.24367816	          0.87500377	         -0.00442464	         29.82225880	          5.03951329	          5.19133617	         -5.23942709	          6.14535062	         -7.49367186	          0.19868177	        -10.76474211	          1.69985441	         11.75464788	         -6.94782824	          7.89400330	         -6.40378293	         27.82292599	          0.60501616	          1.13932480	         -1.82983919	         -0.53657745	        -13.45490149	         19.22538517	         23.24755946	          0.13267646	        -13.48070744	         19.28338411	         43.09126124	          0.05930220	          0.01000042	          0.01000135	          0.01000033	          0.01000053	          0.10353226	          0.05486663	          0.02249344	          0.02771028	          0.02329120	          0.01000478	          0.05422868	          0.13766912	          0.13154876	          0.10172023	          0.04008312	          0.01000172	          0.02279766	          0.05529837	          0.01000385	          0.01487620	          0.02656992	          0.01526056	          0.01526065	          0.11919480	          0.02283822	          0.11348158	          0.02328640	          0.06875647	          0.06874047	          0.05581327	          0.01885078	          0.01885075	          0.01696311	          0.01235329	          0.01235373	          0.01235451	          0.30908431	          0.16076177	          0.12870440	          0.09574680	          0.42584286	          0.07863319	          0.27416935	          0.17472232	          0.12173723	          0.15491908	          0.19088996	          0.16786796	          0.01235808	          0.01235247	          0.01234791	          0.03752721	          0.08260140	          0.01000085	          0.01000062	          0.01000135	          0.01000388	          0.01000144	          0.20251945	          0.01000436	          0.01005651	          0.03148570	          0.01886862	          0.01000144	          0.26525630	          0.32129438	          0.02312292	          0.02511114	          0.12537669	          0.02436418	          0.01000022	          0.01000022	          0.01000020	          0.25332392	          0.32814350	          0.33685826	          0.26890527	          0.24541529	          0.24156746	          0.01036427	          0.01000018	          0.01000040	          0.01000028	          0.01000009	          0.01000057	          0.02749254	          0.01858461	          0.06759950	          0.01000006	          0.04407205	          0.01000276	
          1.44010904	         -7.13206097	         -2.62118014	          2.25311287	          1.25923550	          0.87386624	         -0.00420658	         28.69505921	          5.34839354	          5.60010618	         -4.93475080	          5.26583008	         -8.06492296	          0.19719057	        -10.71713115	          1.53598263	         11.21023686	         -8.93445904	          7.85932639	         -5.88004315	         29.36843909	          0.74615439	          1.64731908	         -1.89786791	         -1.38925647	        -13.46201556	         19.17550219	         21.32343337	         -0.45570104	        -13.49320685	         19.20622240	         45.60551270	          0.13214041	          0.14857169	          0.16846222	          0.08923288	          0.09269123	          0.08381175	          0.04441526	          0.04171394	          0.02731872	          0.01885507	          0.01000667	          0.04389881	          0.11144486	          0.10649041	          0.08234393	          0.03244799	          0.01000096	          0.01845539	          0.04476485	          0.08546145	          0.04185498	          0.02150904	          0.01235365	          0.01235373	          0.09648978	          0.01848927	          0.12201035	          0.01885065	          0.05565929	          0.05564635	          0.04518161	          0.01525994	          0.01525993	          0.01373185	          0.01000018	          0.01000070	          0.01000124	          0.38439435	          0.17782096	          0.14165168	          0.29433433	          0.45847076	          0.17995136	          0.28317860	          0.14143987	          0.09854778	          0.19524181	          0.15452796	          0.13589122	          0.01000800	          0.01000051	          0.01000036	          0.03037876	          0.06686703	          0.01000016	          0.01000020	          0.01000047	          0.01000135	          0.01000053	          0.16394225	          0.01000087	          0.01000136	          0.02548845	          0.01527476	          0.01000147	          0.21472916	          0.28064045	          0.01871838	          0.02032814	          0.10149398	          0.03200077	          0.01000043	          0.01000043	          0.01000040	          0.20506881	          0.26563641	          0.32348038	          0.25794518	          0.23387952	          0.23155110	          0.01000018	          0.01000010	          0.01000005	          0.01000030	          0.01000012	          0.01000086	          0.04527174	          0.02857124	          0.05491818	          0.01000001	          0.03567686	          0.01000003	
          1.45422775	         -7.12640037	         -2.84800539	          2.42860189	          1.27483110	          0.87300837	         -0.00394669	         27.55599618	          5.64542222	          6.00143071	         -4.59840630	          4.36431299	         -8.63958774	          0.18936881	        -10.55448686	          1.37191121	         10.66143563	        -11.10385878	          7.68019089	         -5.33198981	         30.79912542	          0.88265243	          2.15047266	         -1.95913603	         -2.28180386	        -13.46281356	         19.16511631	         19.54387738	         -1.07269609	        -13.50089851	         19.14224130	         48.09932552	          0.19913575	          0.21945691	          0.23833286	          0.07224941	          0.11555396	          0.13967356	          0.03595481	          0.03376973	          0.02383058	          0.01526347	          0.01000070	          0.03553666	          0.09021600	          0.08620541	          0.06665882	          0.03595475	          0.01000098	          0.01494034	          0.03623781	          0.13004719	          0.07521841	          0.03787638	          0.01000049	          0.01000055	          0.07810980	          0.01496994	          0.13001262	          0.01525986	          0.05556439	          0.05424483	          0.04447482	          0.01235312	          0.01235312	          0.01111611	          0.01000017	          0.01000049	          0.01000044	          0.44931454	          0.21561595	          0.14055762	          0.34907456	          0.49327739	          0.20553623	          0.25893997	          0.11449731	          0.07977564	          0.15807708	          0.12509237	          0.11000563	          0.01001758	          0.01000083	          0.01000046	          0.02459201	          0.05412978	          0.01251850	          0.01000460	          0.01000335	          0.01000718	          0.01000143	          0.13271337	          0.03484947	          0.01000509	          0.02063345	          0.01236535	          0.01000087	          0.17382599	          0.22718205	          0.01515282	          0.01645610	          0.08216063	          0.02590510	          0.01000049	          0.01000050	          0.01000042	          0.16600569	          0.21503595	          0.30040297	          0.24592979	          0.22294043	          0.21951108	          0.01000007	          0.01228985	          0.01449520	          0.01000053	          0.01000013	          0.01000046	          0.05477939	          0.04803587	          0.04445695	          0.01000001	          0.02888086	          0.01000003	
